<svg xmlns="http://www.w3.org/2000/svg" xmlns:svg="http://www.w3.org/2000/svg" xmlns:xlink="http://www.w3.org/1999/xlink" id="svg2" width="48" height="48" version="1.1"><defs id="defs4"><linearGradient id="linearGradient3968"><stop style="stop-color:#333;stop-opacity:1" id="stop3970" offset="0"/><stop style="stop-color:gray;stop-opacity:1" id="stop3972" offset="1"/></linearGradient><linearGradient id="linearGradient3927"><stop id="stop3929" offset="0" style="stop-color:#333;stop-opacity:1"/><stop id="stop3931" offset="1" style="stop-color:#e6e6e6;stop-opacity:1"/></linearGradient><linearGradient id="linearGradient3086"><stop id="stop3088" offset="0" style="stop-color:#bebebe;stop-opacity:1"/><stop id="stop3090" offset="1" style="stop-color:#343434;stop-opacity:1"/></linearGradient><linearGradient id="linearGradient4959"><stop style="stop-color:#fff;stop-opacity:1" id="stop4961" offset="0"/><stop style="stop-color:#ac9090;stop-opacity:1" id="stop4963" offset="1"/></linearGradient><linearGradient id="linearGradient3057"><stop id="stop3059" offset="0" style="stop-color:#fff;stop-opacity:1"/><stop id="stop3061" offset="1" style="stop-color:#ffa497;stop-opacity:1"/></linearGradient><linearGradient id="linearGradient3086-2"><stop id="stop3088-3" offset="0" style="stop-color:#bebebe;stop-opacity:1"/><stop id="stop3090-6" offset="1" style="stop-color:#343434;stop-opacity:1"/></linearGradient><radialGradient id="radialGradient3885" cx="-284.196" cy="-97.058" r="2.125" fx="-284.196" fy="-97.058" gradientTransform="matrix(0.16143814,1.0418927,-1.1364097,0.1760832,-351.26867,215.48561)" gradientUnits="userSpaceOnUse" xlink:href="#linearGradient3086-2"/><linearGradient id="linearGradient3086-7"><stop id="stop3088-4" offset="0" style="stop-color:#bebebe;stop-opacity:1"/><stop id="stop3090-7" offset="1" style="stop-color:#343434;stop-opacity:1"/></linearGradient><radialGradient id="radialGradient3885-2" cx="-284.196" cy="-97.058" r="2.125" fx="-284.196" fy="-97.058" gradientTransform="matrix(0.16143814,1.0418927,-1.1364097,0.1760832,-351.26867,215.48561)" gradientUnits="userSpaceOnUse" xlink:href="#linearGradient3086-7"/><linearGradient id="linearGradient3927-5"><stop id="stop3929-8" offset="0" style="stop-color:#333;stop-opacity:1"/><stop id="stop3931-9" offset="1" style="stop-color:#e6e6e6;stop-opacity:1"/></linearGradient><linearGradient id="linearGradient3950" x1="71.915" x2="67.476" y1="1037.999" y2="1037.883" gradientTransform="matrix(1.7020125,0,0,1.7020125,-107.63224,-1764.2061)" gradientUnits="userSpaceOnUse" xlink:href="#linearGradient3927-5"/><radialGradient id="radialGradient4054" cx="-284.196" cy="-97.058" r="2.125" fx="-284.196" fy="-97.058" gradientTransform="matrix(0.16143814,1.0418927,-1.1364097,0.1760832,-351.26867,215.48561)" gradientUnits="userSpaceOnUse" xlink:href="#linearGradient3086"/><radialGradient id="radialGradient4056" cx="-284.196" cy="-97.058" r="2.125" fx="-284.196" fy="-97.058" gradientTransform="matrix(0.16143814,1.0418927,-1.1364097,0.1760832,-351.26867,215.48561)" gradientUnits="userSpaceOnUse" xlink:href="#linearGradient3086-2"/><radialGradient id="radialGradient4058" cx="-284.196" cy="-97.058" r="2.125" fx="-284.196" fy="-97.058" gradientTransform="matrix(0.16143814,1.0418927,-1.1364097,0.1760832,-351.26867,215.48561)" gradientUnits="userSpaceOnUse" xlink:href="#linearGradient3086-7"/><radialGradient id="radialGradient4060" cx="-284.196" cy="-97.058" r="2.125" fx="-284.196" fy="-97.058" gradientTransform="matrix(0.16143814,1.0418927,-1.1364097,0.1760832,-351.26867,215.48561)" gradientUnits="userSpaceOnUse" xlink:href="#linearGradient3086-7"/><radialGradient id="radialGradient4062" cx="-284.196" cy="-97.058" r="2.125" fx="-284.196" fy="-97.058" gradientTransform="matrix(0.16143814,1.0418927,-1.1364097,0.1760832,-351.26867,215.48561)" gradientUnits="userSpaceOnUse" xlink:href="#linearGradient3086-7"/><radialGradient id="radialGradient4064" cx="-284.196" cy="-97.058" r="2.125" fx="-284.196" fy="-97.058" gradientTransform="matrix(0.16143814,1.0418927,-1.1364097,0.1760832,-351.26867,215.48561)" gradientUnits="userSpaceOnUse" xlink:href="#linearGradient3086-7"/><linearGradient id="linearGradient4066" x1="71.915" x2="69.405" y1="1037.999" y2="1037.716" gradientUnits="userSpaceOnUse" xlink:href="#linearGradient3968"/><radialGradient id="radialGradient4068" cx="73.022" cy="26.751" r="2.563" fx="73.022" fy="26.751" gradientTransform="matrix(0.58180359,-1.4600762,1.0508737,0.41874663,0.8672717,119.84725)" gradientUnits="userSpaceOnUse" spreadMethod="pad" xlink:href="#linearGradient3057"/><linearGradient id="linearGradient4070" x1="71.915" x2="67.476" y1="1037.999" y2="1037.883" gradientUnits="userSpaceOnUse" xlink:href="#linearGradient3927"/><radialGradient id="radialGradient4072" cx="72.405" cy="25.907" r="2.563" fx="72.405" fy="25.907" gradientTransform="matrix(-1.033258,-1.3268406,1.1909878,-0.9274648,113.65094,145.22037)" gradientUnits="userSpaceOnUse" spreadMethod="pad" xlink:href="#linearGradient4959"/><radialGradient id="radialGradient4141" cx="-284.196" cy="-97.058" r="2.125" fx="-284.196" fy="-97.058" gradientTransform="matrix(0.16143814,1.0418927,-1.1364097,0.1760832,-351.26867,215.48561)" gradientUnits="userSpaceOnUse" xlink:href="#linearGradient3086"/><radialGradient id="radialGradient4143" cx="-284.196" cy="-97.058" r="2.125" fx="-284.196" fy="-97.058" gradientTransform="matrix(0.16143814,1.0418927,-1.1364097,0.1760832,-351.26867,215.48561)" gradientUnits="userSpaceOnUse" xlink:href="#linearGradient3086-2"/><radialGradient id="radialGradient4145" cx="-284.196" cy="-97.058" r="2.125" fx="-284.196" fy="-97.058" gradientTransform="matrix(0.16143814,1.0418927,-1.1364097,0.1760832,-351.26867,215.48561)" gradientUnits="userSpaceOnUse" xlink:href="#linearGradient3086-7"/><radialGradient id="radialGradient4147" cx="-284.196" cy="-97.058" r="2.125" fx="-284.196" fy="-97.058" gradientTransform="matrix(0.16143814,1.0418927,-1.1364097,0.1760832,-351.26867,215.48561)" gradientUnits="userSpaceOnUse" xlink:href="#linearGradient3086-7"/><radialGradient id="radialGradient4149" cx="-284.196" cy="-97.058" r="2.125" fx="-284.196" fy="-97.058" gradientTransform="matrix(0.16143814,1.0418927,-1.1364097,0.1760832,-351.26867,215.48561)" gradientUnits="userSpaceOnUse" xlink:href="#linearGradient3086-7"/><radialGradient id="radialGradient4151" cx="-284.196" cy="-97.058" r="2.125" fx="-284.196" fy="-97.058" gradientTransform="matrix(0.16143814,1.0418927,-1.1364097,0.1760832,-351.26867,215.48561)" gradientUnits="userSpaceOnUse" xlink:href="#linearGradient3086-7"/><linearGradient id="linearGradient4153" x1="71.915" x2="69.405" y1="1037.999" y2="1037.716" gradientUnits="userSpaceOnUse" xlink:href="#linearGradient3968"/><radialGradient id="radialGradient4155" cx="73.022" cy="26.751" r="2.563" fx="73.022" fy="26.751" gradientTransform="matrix(0.58180359,-1.4600762,1.0508737,0.41874663,0.8672717,119.84725)" gradientUnits="userSpaceOnUse" spreadMethod="pad" xlink:href="#linearGradient3057"/><linearGradient id="linearGradient4157" x1="71.915" x2="67.476" y1="1037.999" y2="1037.883" gradientUnits="userSpaceOnUse" xlink:href="#linearGradient3927"/><radialGradient id="radialGradient4159" cx="72.405" cy="25.907" r="2.563" fx="72.405" fy="25.907" gradientTransform="matrix(-1.033258,-1.3268406,1.1909878,-0.9274648,113.65094,145.22037)" gradientUnits="userSpaceOnUse" spreadMethod="pad" xlink:href="#linearGradient4959"/><radialGradient id="radialGradient4191" cx="-284.196" cy="-97.058" r="2.125" fx="-284.196" fy="-97.058" gradientTransform="matrix(0.16143814,1.0418927,-1.1364097,0.1760832,-351.26867,215.48561)" gradientUnits="userSpaceOnUse" xlink:href="#linearGradient3086"/><radialGradient id="radialGradient4193" cx="-284.196" cy="-97.058" r="2.125" fx="-284.196" fy="-97.058" gradientTransform="matrix(0.16143814,1.0418927,-1.1364097,0.1760832,-351.26867,215.48561)" gradientUnits="userSpaceOnUse" xlink:href="#linearGradient3086-2"/><radialGradient id="radialGradient4195" cx="-284.196" cy="-97.058" r="2.125" fx="-284.196" fy="-97.058" gradientTransform="matrix(0.16143814,1.0418927,-1.1364097,0.1760832,-351.26867,215.48561)" gradientUnits="userSpaceOnUse" xlink:href="#linearGradient3086-7"/><radialGradient id="radialGradient4197" cx="-284.196" cy="-97.058" r="2.125" fx="-284.196" fy="-97.058" gradientTransform="matrix(0.16143814,1.0418927,-1.1364097,0.1760832,-351.26867,215.48561)" gradientUnits="userSpaceOnUse" xlink:href="#linearGradient3086-7"/><radialGradient id="radialGradient4199" cx="-284.196" cy="-97.058" r="2.125" fx="-284.196" fy="-97.058" gradientTransform="matrix(0.16143814,1.0418927,-1.1364097,0.1760832,-351.26867,215.48561)" gradientUnits="userSpaceOnUse" xlink:href="#linearGradient3086-7"/><radialGradient id="radialGradient4201" cx="-284.196" cy="-97.058" r="2.125" fx="-284.196" fy="-97.058" gradientTransform="matrix(0.16143814,1.0418927,-1.1364097,0.1760832,-351.26867,215.48561)" gradientUnits="userSpaceOnUse" xlink:href="#linearGradient3086-7"/><linearGradient id="linearGradient4203" x1="71.915" x2="69.405" y1="1037.999" y2="1037.716" gradientUnits="userSpaceOnUse" xlink:href="#linearGradient3968"/><radialGradient id="radialGradient4205" cx="73.022" cy="26.751" r="2.563" fx="73.022" fy="26.751" gradientTransform="matrix(0.58180359,-1.4600762,1.0508737,0.41874663,0.8672717,119.84725)" gradientUnits="userSpaceOnUse" spreadMethod="pad" xlink:href="#linearGradient3057"/><linearGradient id="linearGradient4207" x1="71.915" x2="67.476" y1="1037.999" y2="1037.883" gradientUnits="userSpaceOnUse" xlink:href="#linearGradient3927"/><radialGradient id="radialGradient4209" cx="72.405" cy="25.907" r="2.563" fx="72.405" fy="25.907" gradientTransform="matrix(-1.033258,-1.3268406,1.1909878,-0.9274648,113.65094,145.22037)" gradientUnits="userSpaceOnUse" spreadMethod="pad" xlink:href="#linearGradient4959"/><linearGradient id="linearGradient4643" x1="71.915" x2="67.476" y1="1037.999" y2="1037.883" gradientUnits="userSpaceOnUse" xlink:href="#linearGradient3927"/><radialGradient id="radialGradient4645" cx="72.405" cy="25.907" r="2.563" fx="72.405" fy="25.907" gradientTransform="matrix(-1.033258,-1.3268406,1.1909878,-0.9274648,113.65094,145.22037)" gradientUnits="userSpaceOnUse" spreadMethod="pad" xlink:href="#linearGradient4959"/><linearGradient id="linearGradient4671" x1="71.915" x2="69.405" y1="1037.999" y2="1037.716" gradientUnits="userSpaceOnUse" xlink:href="#linearGradient3968"/><radialGradient id="radialGradient4673" cx="73.022" cy="26.751" r="2.563" fx="73.022" fy="26.751" gradientTransform="matrix(0.58180359,-1.4600762,1.0508737,0.41874663,0.8672717,119.84725)" gradientUnits="userSpaceOnUse" spreadMethod="pad" xlink:href="#linearGradient3057"/><radialGradient id="radialGradient3272" cx="-284.196" cy="-97.058" r="2.125" fx="-284.196" fy="-97.058" gradientTransform="matrix(0.16143814,1.0418927,-1.1364097,0.1760832,-351.26867,215.48561)" gradientUnits="userSpaceOnUse" xlink:href="#linearGradient3086"/><radialGradient id="radialGradient3274" cx="-284.196" cy="-97.058" r="2.125" fx="-284.196" fy="-97.058" gradientTransform="matrix(0.16143814,1.0418927,-1.1364097,0.1760832,-351.26867,215.48561)" gradientUnits="userSpaceOnUse" xlink:href="#linearGradient3086-2"/><radialGradient id="radialGradient3276" cx="-284.196" cy="-97.058" r="2.125" fx="-284.196" fy="-97.058" gradientTransform="matrix(0.16143814,1.0418927,-1.1364097,0.1760832,-351.26867,215.48561)" gradientUnits="userSpaceOnUse" xlink:href="#linearGradient3086-7"/><radialGradient id="radialGradient3278" cx="-284.196" cy="-97.058" r="2.125" fx="-284.196" fy="-97.058" gradientTransform="matrix(0.16143814,1.0418927,-1.1364097,0.1760832,-351.26867,215.48561)" gradientUnits="userSpaceOnUse" xlink:href="#linearGradient3086-7"/><radialGradient id="radialGradient3280" cx="-284.196" cy="-97.058" r="2.125" fx="-284.196" fy="-97.058" gradientTransform="matrix(0.16143814,1.0418927,-1.1364097,0.1760832,-351.26867,215.48561)" gradientUnits="userSpaceOnUse" xlink:href="#linearGradient3086-7"/><radialGradient id="radialGradient3282" cx="-284.196" cy="-97.058" r="2.125" fx="-284.196" fy="-97.058" gradientTransform="matrix(0.16143814,1.0418927,-1.1364097,0.1760832,-351.26867,215.48561)" gradientUnits="userSpaceOnUse" xlink:href="#linearGradient3086-7"/><linearGradient id="linearGradient3284" x1="71.915" x2="69.405" y1="1037.999" y2="1037.716" gradientUnits="userSpaceOnUse" xlink:href="#linearGradient3968"/><radialGradient id="radialGradient3286" cx="73.022" cy="26.751" r="2.563" fx="73.022" fy="26.751" gradientTransform="matrix(0.58180359,-1.4600762,1.0508737,0.41874663,0.8672717,119.84725)" gradientUnits="userSpaceOnUse" spreadMethod="pad" xlink:href="#linearGradient3057"/><linearGradient id="linearGradient3288" x1="71.915" x2="67.476" y1="1037.999" y2="1037.883" gradientUnits="userSpaceOnUse" xlink:href="#linearGradient3927"/><radialGradient id="radialGradient3290" cx="72.405" cy="25.907" r="2.563" fx="72.405" fy="25.907" gradientTransform="matrix(-1.033258,-1.3268406,1.1909878,-0.9274648,113.65094,145.22037)" gradientUnits="userSpaceOnUse" spreadMethod="pad" xlink:href="#linearGradient4959"/></defs><metadata id="metadata7"/><g id="layer1" transform="translate(149.45038,-1083.8181)"><g style="stroke:none" id="g4947" transform="matrix(0.88992491,-1.01933,0.98906994,0.91715173,-981.09501,300.45954)"><rect style="color:#000;fill:url(#linearGradient4671);fill-opacity:1;fill-rule:nonzero;stroke:none;marker:none;visibility:visible;display:inline;overflow:visible;enable-background:accumulate" id="rect3047" width="1.911" height="16.235" x="70.083" y="1028.748" rx=".488" ry=".592"/><path style="fill:url(#radialGradient4673);fill-opacity:1;stroke:none" id="path3045" d="m 74.246215,25.902912 c 0,1.464466 -1.147612,2.651651 -2.563262,2.651651 -1.415651,0 -2.563262,-1.187185 -2.563262,-2.651651 0,-1.464466 1.147611,-2.65165 2.563262,-2.65165 1.41565,0 2.563262,1.187184 2.563262,2.65165 z" transform="translate(-0.22097087,1004.4948)"/></g><g id="g4951" transform="matrix(1.0040098,0.98717449,-0.98717449,1.0040098,1039.8915,86.207267)"><rect id="rect4953" width="1.845" height="15.324" x="70.538" y="1029.006" ry=".619" style="fill:url(#linearGradient4643);fill-opacity:1;stroke:none"/><path id="path4955" d="m 74.246215,25.902912 c 0,1.464466 -1.147612,2.651651 -2.563262,2.651651 -1.415651,0 -2.563262,-1.187185 -2.563262,-2.651651 0,-1.464466 1.147611,-2.65165 2.563262,-2.65165 1.41565,0 2.563262,1.187184 2.563262,2.65165 z" transform="translate(-0.22097087,1004.4948)" style="fill:url(#radialGradient4645);fill-opacity:1;stroke:none"/></g><g id="g4101" transform="matrix(0.45609598,0,0,0.45609597,10.519576,539.70306)"><rect id="rect3035" width="41.662" height="41.662" x="-29.799" y="1088.969" ry=".182" style="fill:#fff;fill-opacity:1;stroke:#1f241c;stroke-width:2.18899989;stroke-linecap:butt;stroke-miterlimit:4;stroke-opacity:1;stroke-dasharray:none"/><g id="g4074" transform="matrix(0.89688026,0,0,0.89688026,1.8779842,114.55437)"><rect id="rect3846" width="1.149" height="9.463" x="-20.884" y="1122.767" ry=".159" style="fill:#1f241c;fill-opacity:1;stroke:none"/><rect style="fill:#1f241c;fill-opacity:1;stroke:none" id="rect3058" width="10.125" height="36" x="-25.188" y="1087.237" ry=".31"/><rect style="fill:#fff;fill-opacity:1;stroke:none" id="rect3062" width="5.204" height="16.789" x="-22.444" y="1096.199" ry=".399"/></g><g id="g4079" transform="matrix(0.89688026,0,0,0.89688026,-1.1489867,114.33015)"><rect style="fill:#1f241c;fill-opacity:1;stroke:none" id="rect3848" width="1.149" height="9.588" x="-.602" y="1122.736" ry=".161"/><rect id="rect3056" width="10.125" height="36" x="-4.937" y="1087.237" ry=".31" style="fill:#1f241c;fill-opacity:1;stroke:none"/><rect id="rect4030" width="5.204" height="16.789" x="-2.92" y="1096.199" ry=".399" style="fill:#fff;fill-opacity:1;stroke:none"/></g></g><g id="g3228" transform="matrix(0.43928942,0,0,0.4431695,-2.0582464,486.19099)"><rect style="color:#000;fill:#ccc;fill-opacity:1;fill-rule:nonzero;stroke:#ccc;stroke-width:1.83635426;stroke-miterlimit:4;stroke-opacity:1;stroke-dasharray:none;stroke-dashoffset:0;marker:none;visibility:visible;display:inline;overflow:visible;enable-background:accumulate" id="rect4553" width="43.293" height="43.293" x="-110.099" y="1241.273" ry="4.615"/><rect id="rect4555" width="43.293" height="43.293" x="-110.497" y="1241.273" ry="4.615" style="color:#000;fill:#dbdee3;fill-opacity:1;fill-rule:nonzero;stroke:#916f6f;stroke-width:1.83635426;stroke-miterlimit:4;stroke-opacity:1;stroke-dasharray:none;stroke-dashoffset:0;marker:none;visibility:visible;display:inline;overflow:visible;enable-background:accumulate"/><g id="g4557" transform="matrix(0.82727373,0,0,0.82727373,-108.80401,412.40501)"><rect id="rect4559" width="40.648" height="10.121" x="3.86" y="1036.878" ry=".391" style="fill:#333;fill-rule:evenodd;stroke:none"/><rect style="fill:#333;fill-rule:evenodd;stroke:none" id="rect4561" width="36.032" height="10.121" x="6.469" y="1023.201" ry=".359"/><rect style="fill:#333;fill-rule:evenodd;stroke:none" id="rect4563" width="30.638" height="9.895" x="9.295" y="1009.586" ry=".21"/><rect id="rect4565" width="30.518" height="9.895" x="8.883" y="1009.188" ry=".21" style="fill:#fb555c;fill-opacity:1;fill-rule:evenodd;stroke:none"/><path style="fill:#4d4d4d;stroke:none" id="path4567" d="m -283.875,-97 c 0,1.173605 -0.95139,2.125 -2.125,2.125 -1.17361,0 -2.125,-0.951395 -2.125,-2.125 0,-1.173605 0.95139,-2.125 2.125,-2.125 1.17361,0 2.125,0.951395 2.125,2.125 z" transform="matrix(0.77353209,0,0,0.78515422,254.90875,1089.7834)"/><rect style="fill:#ff7f2a;fill-rule:evenodd;stroke:none" id="rect4569" width="40.489" height="10.121" x="3.522" y="1036.54" ry=".359"/><rect id="rect4571" width="35.891" height="10.121" x="6.071" y="1022.751" ry=".359" style="fill:#916f6f;fill-rule:evenodd;stroke:none"/><path id="path4573" d="m -283.875,-97 c 0,1.173605 -0.95139,2.125 -2.125,2.125 -1.17361,0 -2.125,-0.951395 -2.125,-2.125 0,-1.173605 0.95139,-2.125 2.125,-2.125 1.17361,0 2.125,0.951395 2.125,2.125 z" transform="matrix(0.77353209,0,0,0.78515422,236.742,1090.6255)" style="fill:#4d4d4d;stroke:none"/><path style="fill:url(#radialGradient3272);fill-opacity:1;stroke:none" id="path4575" d="m -283.875,-97 c 0,1.173605 -0.95139,2.125 -2.125,2.125 -1.17361,0 -2.125,-0.951395 -2.125,-2.125 0,-1.173605 0.95139,-2.125 2.125,-2.125 1.17361,0 2.125,0.951395 2.125,2.125 z" transform="matrix(0.73634123,0,0,0.73634123,225.90785,1085.7574)"/><path id="path4577" d="m -283.875,-97 c 0,1.173605 -0.95139,2.125 -2.125,2.125 -1.17361,0 -2.125,-0.951395 -2.125,-2.125 0,-1.173605 0.95139,-2.125 2.125,-2.125 1.17361,0 2.125,0.951395 2.125,2.125 z" transform="matrix(0.73634123,0,0,0.73634123,244.14642,1084.922)" style="color:#000;fill:url(#radialGradient3274);fill-opacity:1;fill-rule:nonzero;stroke:none;marker:none;visibility:visible;display:inline;overflow:visible;enable-background:accumulate"/><path style="fill:#4d4d4d;stroke:none" id="path4579" d="m -283.875,-97 c 0,1.173605 -0.95139,2.125 -2.125,2.125 -1.17361,0 -2.125,-0.951395 -2.125,-2.125 0,-1.173605 0.95139,-2.125 2.125,-2.125 1.17361,0 2.125,0.951395 2.125,2.125 z" transform="matrix(0.77353209,0,0,0.78515422,234.62021,1104.3235)"/><path id="path4581" d="m -283.875,-97 c 0,1.173605 -0.95139,2.125 -2.125,2.125 -1.17361,0 -2.125,-0.951395 -2.125,-2.125 0,-1.173605 0.95139,-2.125 2.125,-2.125 1.17361,0 2.125,0.951395 2.125,2.125 z" transform="matrix(0.73634123,0,0,0.73634123,223.78606,1099.5178)" style="color:#000;fill:url(#radialGradient3276);fill-opacity:1;fill-rule:nonzero;stroke:none;marker:none;visibility:visible;display:inline;overflow:visible;enable-background:accumulate"/><path id="path4583" d="m -283.875,-97 c 0,1.173605 -0.95139,2.125 -2.125,2.125 -1.17361,0 -2.125,-0.951395 -2.125,-2.125 0,-1.173605 0.95139,-2.125 2.125,-2.125 1.17361,0 2.125,0.951395 2.125,2.125 z" transform="matrix(0.77353209,0,0,0.78515422,256.42697,1104.2414)" style="fill:#4d4d4d;stroke:none"/><path style="color:#000;fill:url(#radialGradient3278);fill-opacity:1;fill-rule:nonzero;stroke:none;marker:none;visibility:visible;display:inline;overflow:visible;enable-background:accumulate" id="path4585" d="m -283.875,-97 c 0,1.173605 -0.95139,2.125 -2.125,2.125 -1.17361,0 -2.125,-0.951395 -2.125,-2.125 0,-1.173605 0.95139,-2.125 2.125,-2.125 1.17361,0 2.125,0.951395 2.125,2.125 z" transform="matrix(0.73634123,0,0,0.73634123,245.59282,1099.3732)"/><path style="fill:#4d4d4d;stroke:none" id="path4587" d="m -283.875,-97 c 0,1.173605 -0.95139,2.125 -2.125,2.125 -1.17361,0 -2.125,-0.951395 -2.125,-2.125 0,-1.173605 0.95139,-2.125 2.125,-2.125 1.17361,0 2.125,0.951395 2.125,2.125 z" transform="matrix(0.77353209,0,0,0.78515422,258.44693,1118.4099)"/><path id="path4589" d="m -283.875,-97 c 0,1.173605 -0.95139,2.125 -2.125,2.125 -1.17361,0 -2.125,-0.951395 -2.125,-2.125 0,-1.173605 0.95139,-2.125 2.125,-2.125 1.17361,0 2.125,0.951395 2.125,2.125 z" transform="matrix(0.73634123,0,0,0.73634123,247.61278,1113.5416)" style="color:#000;fill:url(#radialGradient3280);fill-opacity:1;fill-rule:nonzero;stroke:none;marker:none;visibility:visible;display:inline;overflow:visible;enable-background:accumulate"/><path id="path4591" d="m -283.875,-97 c 0,1.173605 -0.95139,2.125 -2.125,2.125 -1.17361,0 -2.125,-0.951395 -2.125,-2.125 0,-1.173605 0.95139,-2.125 2.125,-2.125 1.17361,0 2.125,0.951395 2.125,2.125 z" transform="matrix(0.77353209,0,0,0.78515422,233.05279,1118.0085)" style="fill:#4d4d4d;stroke:none"/><path style="color:#000;fill:url(#radialGradient3282);fill-opacity:1;fill-rule:nonzero;stroke:none;marker:none;visibility:visible;display:inline;overflow:visible;enable-background:accumulate" id="path4593" d="m -283.875,-97 c 0,1.173605 -0.95139,2.125 -2.125,2.125 -1.17361,0 -2.125,-0.951395 -2.125,-2.125 0,-1.173605 0.95139,-2.125 2.125,-2.125 1.17361,0 2.125,0.951395 2.125,2.125 z" transform="matrix(0.73634123,0,0,0.73634123,222.21863,1113.1404)"/><g id="g4595" transform="matrix(1.0757321,-1.2321556,1.1955776,1.1086436,-1282.3843,-40.777713)" style="stroke:none"><rect id="rect4597" width="1.911" height="16.235" x="70.083" y="1028.748" rx=".488" ry=".592" style="color:#000;fill:url(#linearGradient3284);fill-opacity:1;fill-rule:nonzero;stroke:none;marker:none;visibility:visible;display:inline;overflow:visible;enable-background:accumulate"/><path id="path4599" d="m 74.246215,25.902912 c 0,1.464466 -1.147612,2.651651 -2.563262,2.651651 -1.415651,0 -2.563262,-1.187185 -2.563262,-2.651651 0,-1.464466 1.147611,-2.65165 2.563262,-2.65165 1.41565,0 2.563262,1.187184 2.563262,2.65165 z" transform="translate(-0.22097087,1004.4948)" style="fill:url(#radialGradient3286);fill-opacity:1;stroke:none"/></g><g id="g4601" transform="matrix(1.2136367,1.1932864,-1.1932864,1.2136367,1162.2256,-307.3186)"><rect style="fill:url(#linearGradient3288);fill-opacity:1;stroke:none" id="rect4603" width="1.845" height="15.324" x="70.538" y="1029.006" ry=".619"/><path style="fill:url(#radialGradient3290);fill-opacity:1;stroke:none" id="path4605" d="m 74.246215,25.902912 c 0,1.464466 -1.147612,2.651651 -2.563262,2.651651 -1.415651,0 -2.563262,-1.187185 -2.563262,-2.651651 0,-1.464466 1.147611,-2.65165 2.563262,-2.65165 1.41565,0 2.563262,1.187184 2.563262,2.65165 z" transform="translate(-0.22097087,1004.4948)"/></g></g></g><g id="g4705" transform="translate(-160.29048,153.08861)"><rect id="rect4016" width="44.72" height="44.72" x="-31.123" y="1087.658" ry="4.767" style="color:#000;fill:#ccc;fill-opacity:1;fill-rule:nonzero;stroke:#ccc;stroke-width:1.89685595;stroke-miterlimit:4;stroke-opacity:1;stroke-dasharray:none;stroke-dashoffset:0;marker:none;visibility:visible;display:inline;overflow:visible;enable-background:accumulate"/><rect style="color:#000;fill:#dbdee3;fill-opacity:1;fill-rule:nonzero;stroke:#916f6f;stroke-width:1.89685595;stroke-miterlimit:4;stroke-opacity:1;stroke-dasharray:none;stroke-dashoffset:0;marker:none;visibility:visible;display:inline;overflow:visible;enable-background:accumulate" id="rect4014" width="44.72" height="44.72" x="-31.534" y="1087.247" ry="4.767"/><rect id="rect3023" width="35.73" height="9.376" x="-26.971" y="1117.929" ry=".362" style="fill:#333;fill-rule:evenodd;stroke:none"/><rect style="fill:#333;fill-rule:evenodd;stroke:none" id="rect3019" width="32.333" height="9.376" x="-24.991" y="1105.259" ry=".333"/><rect style="fill:#333;fill-rule:evenodd;stroke:none" id="rect3017" width="28.384" height="9.168" x="-22.892" y="1092.645" ry=".194"/><rect id="rect2989" width="28.273" height="9.168" x="-23.274" y="1092.276" ry=".194" style="fill:#fb555c;fill-opacity:1;fill-rule:evenodd;stroke:none"/><rect style="fill:#ff7f2a;fill-rule:evenodd;stroke:none" id="rect2991" width="35.59" height="9.376" x="-27.268" y="1117.616" ry=".333"/><rect id="rect2993" width="32.206" height="9.376" x="-25.348" y="1104.842" ry=".333" style="fill:#916f6f;fill-rule:evenodd;stroke:none"/><path style="color:#000;fill:#fff;fill-opacity:1;fill-rule:nonzero;stroke:none;stroke-width:2.18899989;marker:none;visibility:visible;display:inline;overflow:visible;enable-background:accumulate" id="path4675" d="m 15.25,9.875 c 0,1.104569 -0.895431,2 -2,2 -1.104569,0 -2,-0.895431 -2,-2 0,-1.1045695 0.895431,-2 2,-2 1.104569,0 2,0.8954305 2,2 z" transform="translate(-30.59375,1086.9375)"/><path id="path4677" d="m 15.25,9.875 c 0,1.104569 -0.895431,2 -2,2 -1.104569,0 -2,-0.895431 -2,-2 0,-1.1045695 0.895431,-2 2,-2 1.104569,0 2,0.8954305 2,2 z" transform="translate(-32.160692,1099.8933)" style="color:#000;fill:#fff;fill-opacity:1;fill-rule:nonzero;stroke:none;stroke-width:2.18899989;marker:none;visibility:visible;display:inline;overflow:visible;enable-background:accumulate"/><path style="color:#000;fill:#fff;fill-opacity:1;fill-rule:nonzero;stroke:none;stroke-width:2.18899989;marker:none;visibility:visible;display:inline;overflow:visible;enable-background:accumulate" id="path4679" d="m 15.25,9.875 c 0,1.104569 -0.895431,2 -2,2 -1.104569,0 -2,-0.895431 -2,-2 0,-1.1045695 0.895431,-2 2,-2 1.104569,0 2,0.8954305 2,2 z" transform="translate(-33.853172,1112.6509)"/><path id="path4683" d="m 15.25,9.875 c 0,1.104569 -0.895431,2 -2,2 -1.104569,0 -2,-0.895431 -2,-2 0,-1.1045695 0.895431,-2 2,-2 1.104569,0 2,0.8954305 2,2 z" transform="matrix(1,0,0,-1,-11.059925,1132.4009)" style="color:#000;fill:#fff;fill-opacity:1;fill-rule:nonzero;stroke:none;stroke-width:2.18899989;marker:none;visibility:visible;display:inline;overflow:visible;enable-background:accumulate"/><path style="color:#000;fill:#fff;fill-opacity:1;fill-rule:nonzero;stroke:none;stroke-width:2.18899989;marker:none;visibility:visible;display:inline;overflow:visible;enable-background:accumulate" id="path4685" d="m 15.25,9.875 c 0,1.104569 -0.895431,2 -2,2 -1.104569,0 -2,-0.895431 -2,-2 0,-1.1045695 0.895431,-2 2,-2 1.104569,0 2,0.8954305 2,2 z" transform="matrix(1,0,0,-1,-12.626867,1119.4451)"/><path id="path4687" d="m 15.25,9.875 c 0,1.104569 -0.895431,2 -2,2 -1.104569,0 -2,-0.895431 -2,-2 0,-1.1045695 0.895431,-2 2,-2 1.104569,0 2,0.8954305 2,2 z" transform="matrix(1,0,0,-1,-14.319347,1106.6875)" style="color:#000;fill:#fff;fill-opacity:1;fill-rule:nonzero;stroke:none;stroke-width:2.18899989;marker:none;visibility:visible;display:inline;overflow:visible;enable-background:accumulate"/></g><flowRoot style="font-size:40px;font-style:normal;font-weight:400;line-height:125%;letter-spacing:0;word-spacing:0;fill:#000;fill-opacity:1;stroke:none;font-family:Sans" id="flowRoot4689" transform="translate(347.4547,1081.5699)" xml:space="preserve"><flowRegion id="flowRegion4691"><rect id="rect4693" width="70.25" height="67.5" x="-28.75" y="-124.25"/></flowRegion><flowPara style="font-style:italic;font-variant:normal;font-weight:700;font-stretch:normal;font-family:Wingdings;-inkscape-font-specification:Wingdings Bold Italic" id="flowPara4695">B</flowPara></flowRoot><g id="g4732" transform="matrix(0.42527807,0,0,0.4252802,-13.471186,573.89698)"><rect style="color:#000;fill:#ccc;fill-opacity:1;fill-rule:nonzero;stroke:#ccc;stroke-width:1.89685595;stroke-miterlimit:4;stroke-opacity:1;stroke-dasharray:none;stroke-dashoffset:0;marker:none;visibility:visible;display:inline;overflow:visible;enable-background:accumulate" id="rect4734" width="44.72" height="44.72" x="-31.123" y="1087.658" ry="4.767"/><rect id="rect4736" width="44.72" height="44.72" x="-31.534" y="1087.247" ry="4.767" style="color:#000;fill:#dbdee3;fill-opacity:1;fill-rule:nonzero;stroke:#916f6f;stroke-width:1.89685595;stroke-miterlimit:4;stroke-opacity:1;stroke-dasharray:none;stroke-dashoffset:0;marker:none;visibility:visible;display:inline;overflow:visible;enable-background:accumulate"/><rect style="fill:#333;fill-rule:evenodd;stroke:none" id="rect4738" width="35.73" height="9.376" x="-26.971" y="1117.929" ry=".362"/><rect id="rect4740" width="32.333" height="9.376" x="-24.991" y="1105.259" ry=".333" style="fill:#333;fill-rule:evenodd;stroke:none"/><rect id="rect4742" width="28.384" height="9.168" x="-22.892" y="1092.645" ry=".194" style="fill:#333;fill-rule:evenodd;stroke:none"/><rect style="fill:#fb555c;fill-opacity:1;fill-rule:evenodd;stroke:none" id="rect4744" width="28.273" height="9.168" x="-23.274" y="1092.276" ry=".194"/><rect id="rect4746" width="35.59" height="9.376" x="-27.268" y="1117.616" ry=".333" style="fill:#ff7f2a;fill-rule:evenodd;stroke:none"/><rect style="fill:#916f6f;fill-rule:evenodd;stroke:none" id="rect4748" width="32.206" height="9.376" x="-25.348" y="1104.842" ry=".333"/><path id="path4750" d="m 15.25,9.875 c 0,1.104569 -0.895431,2 -2,2 -1.104569,0 -2,-0.895431 -2,-2 0,-1.1045695 0.895431,-2 2,-2 1.104569,0 2,0.8954305 2,2 z" transform="translate(-30.59375,1086.9375)" style="color:#000;fill:#fff;fill-opacity:1;fill-rule:nonzero;stroke:none;stroke-width:2.18899989;marker:none;visibility:visible;display:inline;overflow:visible;enable-background:accumulate"/><path style="color:#000;fill:#fff;fill-opacity:1;fill-rule:nonzero;stroke:none;stroke-width:2.18899989;marker:none;visibility:visible;display:inline;overflow:visible;enable-background:accumulate" id="path4752" d="m 15.25,9.875 c 0,1.104569 -0.895431,2 -2,2 -1.104569,0 -2,-0.895431 -2,-2 0,-1.1045695 0.895431,-2 2,-2 1.104569,0 2,0.8954305 2,2 z" transform="translate(-32.160692,1099.8933)"/><path id="path4754" d="m 15.25,9.875 c 0,1.104569 -0.895431,2 -2,2 -1.104569,0 -2,-0.895431 -2,-2 0,-1.1045695 0.895431,-2 2,-2 1.104569,0 2,0.8954305 2,2 z" transform="translate(-33.853172,1112.6509)" style="color:#000;fill:#fff;fill-opacity:1;fill-rule:nonzero;stroke:none;stroke-width:2.18899989;marker:none;visibility:visible;display:inline;overflow:visible;enable-background:accumulate"/><path style="color:#000;fill:#fff;fill-opacity:1;fill-rule:nonzero;stroke:none;stroke-width:2.18899989;marker:none;visibility:visible;display:inline;overflow:visible;enable-background:accumulate" id="path4756" d="m 15.25,9.875 c 0,1.104569 -0.895431,2 -2,2 -1.104569,0 -2,-0.895431 -2,-2 0,-1.1045695 0.895431,-2 2,-2 1.104569,0 2,0.8954305 2,2 z" transform="matrix(1,0,0,-1,-11.059925,1132.4009)"/><path id="path4758" d="m 15.25,9.875 c 0,1.104569 -0.895431,2 -2,2 -1.104569,0 -2,-0.895431 -2,-2 0,-1.1045695 0.895431,-2 2,-2 1.104569,0 2,0.8954305 2,2 z" transform="matrix(1,0,0,-1,-12.626867,1119.4451)" style="color:#000;fill:#fff;fill-opacity:1;fill-rule:nonzero;stroke:none;stroke-width:2.18899989;marker:none;visibility:visible;display:inline;overflow:visible;enable-background:accumulate"/><path style="color:#000;fill:#fff;fill-opacity:1;fill-rule:nonzero;stroke:none;stroke-width:2.18899989;marker:none;visibility:visible;display:inline;overflow:visible;enable-background:accumulate" id="path4760" d="m 15.25,9.875 c 0,1.104569 -0.895431,2 -2,2 -1.104569,0 -2,-0.895431 -2,-2 0,-1.1045695 0.895431,-2 2,-2 1.104569,0 2,0.8954305 2,2 z" transform="matrix(1,0,0,-1,-14.319347,1106.6875)"/></g><g id="g4852" transform="matrix(0.48504408,0,0,0.4813028,140.34118,578.77344)"><rect id="rect4764" width="41.02" height="41.02" x="-199.638" y="949.842" ry=".179" style="fill:#fff;fill-opacity:1;stroke:#002b00;stroke-width:.17091596;stroke-miterlimit:4;stroke-opacity:1;stroke-dasharray:none"/><rect id="rect4766" width="40.921" height="10.257" x="-199.598" y="949.892" ry=".359" style="fill:#b41a12;fill-opacity:1;stroke:none"/><rect style="color:#000;fill:#f89715;fill-opacity:1;fill-rule:nonzero;stroke:none;marker:none;visibility:visible;display:inline;overflow:visible;enable-background:accumulate" id="rect4768" width="40.921" height="10.257" x="-199.598" y="970.123" ry=".359"/><rect id="rect4770" width="40.921" height="10.257" x="-199.567" y="980.528" ry=".359" style="color:#000;fill:#e33900;fill-opacity:1;fill-rule:nonzero;stroke:none;marker:none;visibility:visible;display:inline;overflow:visible;enable-background:accumulate"/><rect style="fill:#f1e8bf;fill-opacity:1;stroke:none" id="rect4772" width="40.921" height="10.257" x="-199.567" y="959.846" ry=".359"/><rect id="rect4774" width="41.233" height=".961" x="-199.723" y="949.735" ry=".179" style="fill:#4d4d4d;fill-opacity:1;stroke:none"/><rect style="fill:#4d4d4d;fill-opacity:1;stroke:none" id="rect4776" width="41.233" height=".961" x="-199.723" y="949.735" ry=".179"/><rect id="rect4778" width="41.233" height=".961" x="-199.723" y="959.67" ry=".179" style="fill:#4d4d4d;fill-opacity:1;stroke:none"/><rect style="fill:#4d4d4d;fill-opacity:1;stroke:none" id="rect4780" width="41.233" height=".961" x="-199.723" y="970.032" ry=".179"/><rect id="rect4782" width="41.233" height=".961" x="-199.723" y="979.753" ry=".179" style="fill:#4d4d4d;fill-opacity:1;stroke:none"/><rect style="fill:#1f241c;fill-opacity:1;stroke:none" id="rect4784" width="8.653" height="20.83" x="-174.882" y="959.67" ry=".179"/><rect id="rect4786" width="8.653" height="20.83" x="-192.187" y="959.67" ry=".179" style="fill:#1f241c;fill-opacity:1;stroke:none"/><rect style="fill:#4d4d4d;fill-opacity:1;stroke:none" id="rect4788" width="41.233" height=".961" x="-199.723" y="990.328" ry=".179"/><rect id="rect4790" width="3.136" height="10.117" x="-190.414" y="961.571" ry=".24" style="fill:#ccc;fill-opacity:1;stroke:none"/><rect style="fill:#ccc;fill-opacity:1;stroke:none" id="rect4792" width="3.136" height="10.117" x="-173.117" y="961.785" ry=".24"/></g><g id="g3292" transform="matrix(2.0160557,0,0,2.0160557,-83.176212,-1153.8184)"><rect style="color:#000;fill:#6f8a91;fill-opacity:1;fill-rule:nonzero;stroke:none;stroke-width:2.18899989;marker:none;visibility:visible;display:inline;overflow:visible;enable-background:accumulate" id="rect4869" width="20" height="20" x="-30.969" y="1111.813" ry="2.678"/><rect id="rect4944" width="16" height="16" x="-28.952" y="1113.813" ry="2.191" style="color:#000;fill:#ececec;fill-opacity:1;fill-rule:nonzero;stroke:none;stroke-width:2.18899989;marker:none;visibility:visible;display:inline;overflow:visible;enable-background:accumulate"/><g style="font-size:40px;font-style:italic;font-variant:normal;font-weight:700;font-stretch:normal;line-height:125%;letter-spacing:0;word-spacing:0;fill:#374845;fill-opacity:1;stroke:none;font-family:Droid Sans;-inkscape-font-specification:Droid Sans Bold Italic" id="flowRoot4873" transform="matrix(0.42422287,0,0,0.42422286,-12.349122,1084.667)"><path id="path4942" d="m -26.578125,73.284029 8.359375,0 c 1.796856,2.8e-5 3.346333,0.130237 4.648437,0.390625 1.315081,0.247424 2.369767,0.65758 3.164063,1.230469 0.7942446,0.559922 1.3280982,1.302109 1.6015625,2.226562 0.286431,0.911482 0.2929414,2.037783 0.019531,3.378906 -0.1562769,0.807313 -0.4036725,1.56252 -0.7421875,2.265625 -0.3385676,0.703144 -0.748723,1.321633 -1.230469,1.855469 -0.481795,0.533871 -1.028669,0.983089 -1.640625,1.347656 -0.612002,0.351578 -1.282574,0.585953 -2.011718,0.703125 l -0.03906,0.195313 c 0.690082,0.156265 1.315082,0.384129 1.875,0.683594 0.559872,0.286472 1.015601,0.690117 1.367188,1.210937 0.364558,0.507825 0.598933,1.152356 0.703125,1.933594 0.117162,0.78126 0.06508,1.73178 -0.15625,2.851562 -0.260442,1.302091 -0.722681,2.467454 -1.386719,3.496094 -0.664086,1.015629 -1.490908,1.881514 -2.480469,2.597656 -0.989603,0.703124 -2.135436,1.243494 -3.4375,1.621094 -1.289079,0.3776 -2.701838,0.56641 -4.238281,0.56641 l -10.078125,0 5.703125,-28.554691 m 3.808594,11.308594 3.144531,0 c 0.755191,1.7e-5 1.399722,-0.06509 1.933594,-0.195313 0.533835,-0.143211 0.983054,-0.351545 1.347656,-0.625 0.364563,-0.273419 0.657532,-0.61196 0.878906,-1.015625 0.221334,-0.416647 0.384094,-0.898417 0.488281,-1.445312 0.221334,-1.093729 0.03904,-1.874978 -0.546875,-2.34375 -0.585957,-0.481748 -1.621112,-0.722633 -3.105468,-0.722657 l -2.871094,0 -1.269531,6.347657 m -0.976563,4.804687 -1.484375,7.441406 3.554688,0 c 0.794256,5e-6 1.477849,-0.09114 2.050781,-0.273437 0.585921,-0.182286 1.074201,-0.442703 1.464844,-0.78125 0.403627,-0.338535 0.722638,-0.748691 0.957031,-1.230469 0.247377,-0.481763 0.429668,-1.015617 0.546875,-1.601562 0.104147,-0.533845 0.130189,-1.015615 0.07813,-1.445313 -0.0521,-0.442697 -0.221373,-0.820301 -0.507812,-1.132812 -0.286477,-0.312489 -0.696633,-0.553374 -1.230469,-0.722657 -0.520851,-0.169258 -1.197933,-0.253893 -2.03125,-0.253906 l -3.398438,0" style="fill:#374845;fill-opacity:1"/></g></g><path id="path4921" d="m -47.786299,1162.4845 c -1.863513,9.3637 -3.727018,18.7273 -5.590532,28.091 3.671755,-0.019 7.345113,0.04 11.015735,-0.034 3.727018,-0.1663 7.58882,-2.0131 9.311227,-5.4579 1.022529,-2.1196 1.61784,-4.7386 0.619541,-6.9762 -0.589519,-1.38 -2.233795,-1.911 -3.407607,-2.3254 1.312732,-0.4329 2.874857,-1.0975 3.780165,-2.3448 1.511697,-1.8725 2.222875,-4.434 1.854542,-6.815 -0.391705,-2.1624 -2.564764,-3.3483 -4.557171,-3.7025 -3.26519,-0.661 -6.607757,-0.3696 -9.914606,-0.4349 -1.037098,0 -2.074196,0 -3.111294,0 z m 0.913305,2.0757 c 3.036139,0.03 6.076175,-0.074 9.108772,0.084 1.950473,0.2039 4.29259,0.5101 5.435387,2.3227 1.005118,1.8657 0.465044,4.1857 -0.463069,5.9685 -0.804806,1.4392 -2.213071,2.5991 -3.868727,2.8611 0.544644,0.5401 2.206314,0.672 2.684562,1.7436 1.101687,1.7987 0.582124,4.0932 -0.164629,5.9272 -1.26838,2.926 -4.353822,4.6608 -7.441045,4.9434 -2.632709,0.1725 -5.276382,0.054 -7.914174,0.089 -0.721681,0 -1.443371,0 -2.165052,0 1.596,-7.9799 3.191912,-15.96 4.787975,-23.9397 z m 4.096033,2.8229 c -0.415139,2.0757 -0.830277,4.1514 -1.245416,6.227 0.61321,0.1942 0.460882,-0.5487 0.60423,-0.9296 0.26908,-1.323 0.538161,-2.646 0.807241,-3.9689 1.523566,0.065 3.111153,-0.2023 4.570589,0.3432 1.351408,0.544 1.007305,2.2563 0.560461,3.3145 -0.666311,1.1928 1.16323,-0.9111 1.009856,-1.5752 0.435969,-1.1817 0.143685,-2.8225 -1.27132,-3.127 -1.630761,-0.4574 -3.361838,-0.2266 -5.035641,-0.284 z m 4.981662,5.4798 c -1.652884,1.0699 -3.700192,0.6657 -5.563325,0.7472 -0.628487,0.051 -0.190977,0.6603 0.325203,0.4152 1.58725,-0.083 3.355072,0.3117 4.74,-0.6642 0.188551,-0.1414 0.353667,-0.3125 0.498122,-0.4982 z m -6.697568,5.2031 c -0.194387,0.5356 0.711373,0.1693 1.039312,0.2768 1.546051,0.054 3.232005,-0.2378 4.606572,0.6366 -1.104069,-1.177 -2.861068,-0.8644 -4.327803,-0.9136 -0.439298,10e-5 -0.879075,-2e-4 -1.318081,2e-4 z m 5.645884,0.9134 c 0.800059,1.2262 0.235152,2.8562 -0.514125,3.9749 -1.143533,1.5018 -3.17738,1.3774 -4.875414,1.3665 -0.500584,0 -1.001176,0 -1.50176,0 0.39669,-1.9927 0.793372,-3.9854 1.190063,-5.978 -0.612332,-0.211 -0.493649,0.4704 -0.615184,0.8586 -0.431487,2.1492 -0.862966,4.2986 -1.294453,6.4478 1.763934,-0.054 3.553347,0.151 5.290977,-0.2134 2.2302,-0.4433 3.425967,-2.9051 3.205525,-5.0173 -0.06288,-0.5787 -0.365517,-1.1487 -0.885629,-1.4391 z" style="font-size:40px;font-style:italic;font-variant:normal;font-weight:700;font-stretch:normal;line-height:125%;letter-spacing:0;word-spacing:0;fill:#ccc;fill-opacity:1;stroke:none;font-family:Droid Sans;-inkscape-font-specification:Droid Sans Bold Italic"/><g id="g5590" transform="translate(145.58006,-75.934265)"><g id="g5032"><rect id="rect4976" width="20" height="20" x="-30.969" y="1111.813" ry="2.678" style="color:#000;fill:#fff;fill-opacity:1;fill-rule:nonzero;stroke:none;stroke-width:2.18899989;marker:none;visibility:visible;display:inline;overflow:visible;enable-background:accumulate"/><rect style="color:#000;fill:#fff;fill-opacity:1;fill-rule:nonzero;stroke:#000;stroke-width:1.12789953;stroke-miterlimit:4.0999999;stroke-opacity:1;stroke-dasharray:none;marker:none;visibility:visible;display:inline;overflow:visible;enable-background:accumulate" id="rect4978" width="16.927" height="16.927" x="-29.432" y="1113.396" ry="2.267"/></g><g style="font-size:40px;font-style:italic;font-variant:normal;font-weight:700;font-stretch:normal;line-height:125%;letter-spacing:0;word-spacing:0;fill:#000;fill-opacity:1;stroke:none;font-family:Droid Sans;-inkscape-font-specification:Droid Sans Bold Italic" id="g5036" transform="matrix(0.41918338,0,0,0.41918338,-12.403552,1085.1082)"><path id="path5038" d="m -26.578125,73.284029 8.359375,0 c 1.796856,2.8e-5 3.346333,0.130237 4.648437,0.390625 1.315081,0.247424 2.369767,0.65758 3.164063,1.230469 0.7942446,0.559922 1.3280982,1.302109 1.6015625,2.226562 0.286431,0.911482 0.2929414,2.037783 0.019531,3.378906 -0.1562769,0.807313 -0.4036725,1.56252 -0.7421875,2.265625 -0.3385676,0.703144 -0.748723,1.321633 -1.230469,1.855469 -0.481795,0.533871 -1.028669,0.983089 -1.640625,1.347656 -0.612002,0.351578 -1.282574,0.585953 -2.011718,0.703125 l -0.03906,0.195313 c 0.690082,0.156265 1.315082,0.384129 1.875,0.683594 0.559872,0.286472 1.015601,0.690117 1.367188,1.210937 0.364558,0.507825 0.598933,1.152356 0.703125,1.933594 0.117162,0.78126 0.06508,1.73178 -0.15625,2.851562 -0.260442,1.302091 -0.722681,2.467454 -1.386719,3.496094 -0.664086,1.015629 -1.490908,1.881514 -2.480469,2.597656 -0.989603,0.703124 -2.135436,1.243494 -3.4375,1.621094 -1.289079,0.3776 -2.701838,0.56641 -4.238281,0.56641 l -10.078125,0 5.703125,-28.554691 m 3.808594,11.308594 3.144531,0 c 0.755191,1.7e-5 1.399722,-0.06509 1.933594,-0.195313 0.533835,-0.143211 0.983054,-0.351545 1.347656,-0.625 0.364563,-0.273419 0.657532,-0.61196 0.878906,-1.015625 0.221334,-0.416647 0.384094,-0.898417 0.488281,-1.445312 0.221334,-1.093729 0.03904,-1.874978 -0.546875,-2.34375 -0.585957,-0.481748 -1.621112,-0.722633 -3.105468,-0.722657 l -2.871094,0 -1.269531,6.347657 m -0.976563,4.804687 -1.484375,7.441406 3.554688,0 c 0.794256,5e-6 1.477849,-0.09114 2.050781,-0.273437 0.585921,-0.182286 1.074201,-0.442703 1.464844,-0.78125 0.403627,-0.338535 0.722638,-0.748691 0.957031,-1.230469 0.247377,-0.481763 0.429668,-1.015617 0.546875,-1.601562 0.104147,-0.533845 0.130189,-1.015615 0.07813,-1.445313 -0.0521,-0.442697 -0.221373,-0.820301 -0.507812,-1.132812 -0.286477,-0.312489 -0.696633,-0.553374 -1.230469,-0.722657 -0.520851,-0.169258 -1.197933,-0.253893 -2.03125,-0.253906 l -3.398438,0" style="fill:#000;fill-opacity:1"/></g></g><path id="rect5571" d="m -9.8870894,1156.3964 c -1.4838046,0 -2.6874996,1.2037 -2.6874996,2.6875 l 0,14.625 c 0,1.4838 1.203695,2.6875 2.6874996,2.6875 l 14.625,0 c 1.483805,0 2.6875,-1.2037 2.6875,-2.6875 l 0,-14.625 c 0,-1.4838 -1.203695,-2.6875 -2.6875,-2.6875 l -14.625,0 z m 1.125,1.0313 12.375,0 c 1.558514,0 2.84375,1.2541 2.84375,2.8125 l 0,12.4062 c 0,1.5586 -1.285236,2.8125 -2.84375,2.8125 l -12.375,0 c -1.5585136,0 -2.8437496,-1.2539 -2.8437496,-2.8125 l 0,-12.4062 c 0,-1.5584 1.285236,-2.8125 2.8437496,-2.8125 z m 0,1.125 c -0.953182,-10e-5 -1.7187496,0.7344 -1.7187496,1.6875 l 0,12.4062 c 0,0.9532 0.7655676,1.6875 1.7187496,1.6875 l 12.375,0 c 0.953182,0 1.71875,-0.7343 1.71875,-1.6875 l 0,-12.4062 c 0,-0.9531 -0.765568,-1.6875 -1.71875,-1.6875 l -12.375,0 z m 3.625,1.8437 3.5,0 c 0.75321197,10e-5 1.39167997,0.079 1.93749997,0.1875 0.55126,0.1037 0.97954403,0.2598 1.31250003,0.5 0.332934,0.2347 0.572869,0.55 0.6875,0.9375 0.120067,0.3821 0.114597,0.8441 0,1.4063 -0.06551,0.3384 -0.1706,0.674 -0.3125,0.9687 -0.141922,0.2948 -0.29806,0.5575 -0.5,0.7813 -0.20196,0.2238 -0.430978,0.4097 -0.68750003,0.5625 -0.256541,0.1474 -0.538105,0.2321 -0.84375,0.2812 l -0.03125,0.094 c 0.289271,0.065 0.546542,0.1556 0.78125,0.2812 0.234689,0.1201 0.44637103,0.2817 0.59375003,0.5 0.152817,0.2128 0.237575,0.485 0.28125,0.8125 0.04911,0.3275 0.03028,0.7181 -0.0625,1.1875 -0.109173,0.5458 -0.315396,1.0377 -0.59375003,1.4688 -0.278374,0.4258 -0.616443,0.7935 -1.03125,1.0937 -0.414825,0.2948 -0.891696,0.5292 -1.43749997,0.6875 -0.54036,0.1583 -1.137199,0.25 -1.78125,0.25 l -4.21875,0 2.40625,-12 z m 2.125,2.0938 -0.53125,2.6562 1.3125,0 c 0.316564,0 0.58871,-0.01 0.8125,-0.062 0.223775,-0.06 0.409665,-0.1666 0.56249997,-0.2812 0.152819,-0.1147 0.282204,-0.2371 0.375,-0.4063 0.09278,-0.1746 0.143827,-0.3958 0.1875,-0.625 0.09278,-0.4585 0.02686,-0.7722 -0.21875,-0.9687 -0.245623,-0.2019 -0.69028297,-0.3125 -1.31249997,-0.3125 l -1.1875,0 z m -0.9375,4.6875 -0.625,3.0937 1.46875,0 c 0.332939,0 0.634836,-0.017 0.875,-0.094 0.245608,-0.077 0.429999,-0.2019 0.59375,-0.3438 0.169194,-0.1419 0.307996,-0.2981 0.40625,-0.5 0.103696,-0.202 0.200869,-0.4418 0.24999997,-0.6875 0.04366,-0.2237 0.05307,-0.4136 0.03125,-0.5937 -0.02184,-0.1856 -0.09868,-0.3378 -0.21874997,-0.4688 -0.120086,-0.131 -0.307475,-0.2415 -0.53125,-0.3125 -0.218332,-0.071 -0.494437,-0.094 -0.84375,-0.094 l -1.40625,0 z" style="color:#000;fill:#dfdbd2;fill-opacity:1;fill-rule:nonzero;stroke:none;stroke-width:2.18899989;marker:none;visibility:visible;display:inline;overflow:visible;enable-background:accumulate"/><path style="color:#000;fill:#dfdbd2;fill-opacity:1;fill-rule:nonzero;stroke:none;stroke-width:2.18899989;marker:none;visibility:visible;display:inline;overflow:visible;enable-background:accumulate" id="path5597" d="m 15.5625,1157.4998 c -1.483805,0 -2.6875,1.2037 -2.6875,2.6875 l 0,14.625 c 0,1.4838 1.203695,2.6875 2.6875,2.6875 l 14.625,0 c 1.483805,0 2.6875,-1.2037 2.6875,-2.6875 l 0,-14.625 c 0,-1.4838 -1.203695,-2.6875 -2.6875,-2.6875 l -14.625,0 z m 1.125,1.0313 12.375,0 c 1.558514,0 2.84375,1.2541 2.84375,2.8125 l 0,12.4062 c 0,1.5586 -1.285236,2.8125 -2.84375,2.8125 l -12.375,0 c -1.558514,0 -2.84375,-1.2539 -2.84375,-2.8125 l 0,-12.4062 c 0,-1.5584 1.285236,-2.8125 2.84375,-2.8125 z m 0,1.125 c -0.953182,-10e-5 -1.71875,0.7344 -1.71875,1.6875 l 0,12.4062 c 0,0.9532 0.765568,1.6875 1.71875,1.6875 l 12.375,0 c 0.953182,0 1.71875,-0.7343 1.71875,-1.6875 l 0,-12.4062 c 0,-0.9531 -0.765568,-1.6875 -1.71875,-1.6875 l -12.375,0 z m 3.625,1.8437 3.5,0 c 0.753212,10e-5 1.39168,0.079 1.9375,0.1875 0.55126,0.1037 0.979544,0.2598 1.3125,0.5 0.332934,0.2347 0.572869,0.55 0.6875,0.9375 0.120067,0.3821 0.114597,0.8441 0,1.4063 -0.06551,0.3384 -0.1706,0.674 -0.3125,0.9687 -0.141922,0.2948 -0.29806,0.5575 -0.5,0.7813 -0.20196,0.2238 -0.430978,0.4097 -0.6875,0.5625 -0.256541,0.1474 -0.538105,0.2321 -0.84375,0.2812 l -0.03125,0.094 c 0.289271,0.065 0.546542,0.1556 0.78125,0.2812 0.234689,0.1201 0.446371,0.2817 0.59375,0.5 0.152817,0.2128 0.237575,0.485 0.28125,0.8125 0.04911,0.3275 0.03028,0.7181 -0.0625,1.1875 -0.109173,0.5458 -0.315396,1.0377 -0.59375,1.4688 -0.278374,0.4258 -0.616443,0.7935 -1.03125,1.0937 -0.414825,0.2948 -0.891696,0.5292 -1.4375,0.6875 -0.54036,0.1583 -1.137199,0.25 -1.78125,0.25 l -4.21875,0 2.40625,-12 z m 2.125,2.0938 -0.53125,2.6562 1.3125,0 c 0.316564,0 0.58871,-0.01 0.8125,-0.062 0.223775,-0.06 0.409665,-0.1666 0.5625,-0.2812 0.152819,-0.1147 0.282204,-0.2371 0.375,-0.4063 0.09278,-0.1746 0.143827,-0.3958 0.1875,-0.625 0.09278,-0.4585 0.02686,-0.7722 -0.21875,-0.9687 -0.245623,-0.2019 -0.690283,-0.3125 -1.3125,-0.3125 l -1.1875,0 z m -0.9375,4.6875 -0.625,3.0937 1.46875,0 c 0.332939,0 0.634836,-0.017 0.875,-0.094 0.245608,-0.077 0.429999,-0.2019 0.59375,-0.3438 0.169194,-0.1419 0.307996,-0.2981 0.40625,-0.5 0.103696,-0.202 0.200869,-0.4418 0.25,-0.6875 0.04366,-0.2237 0.05307,-0.4136 0.03125,-0.5937 -0.02184,-0.1856 -0.09868,-0.3378 -0.21875,-0.4688 -0.120086,-0.131 -0.307475,-0.2415 -0.53125,-0.3125 -0.218332,-0.071 -0.494437,-0.094 -0.84375,-0.094 l -1.40625,0 z"/><g id="g3187" transform="translate(129.86529,-101.93427)"><rect id="rect5634" width="20" height="20" x="-38.969" y="1137.813" ry="2.678" style="color:#000;fill:#dfdbd2;fill-opacity:1;fill-rule:nonzero;stroke:none;stroke-width:2.18899989;marker:none;visibility:visible;display:inline;overflow:visible;enable-background:accumulate"/><rect style="color:#000;fill:#dfdbd2;fill-opacity:1;fill-rule:nonzero;stroke:#3c3b37;stroke-width:1.12789953;stroke-miterlimit:4.0999999;stroke-opacity:1;stroke-dasharray:none;marker:none;visibility:visible;display:inline;overflow:visible;enable-background:accumulate" id="rect5636" width="16.927" height="16.927" x="-37.432" y="1139.396" ry="2.267"/><g id="g5638" transform="matrix(0.41918338,0,0,0.41918338,-20.403552,1111.1082)" style="font-size:40px;font-style:italic;font-variant:normal;font-weight:700;font-stretch:normal;line-height:125%;letter-spacing:0;word-spacing:0;fill:#3c3b37;fill-opacity:1;stroke:none;font-family:Droid Sans;-inkscape-font-specification:Droid Sans Bold Italic"><path style="fill:#3c3b37;fill-opacity:1" id="path5640" d="m -26.578125,73.284029 8.359375,0 c 1.796856,2.8e-5 3.346333,0.130237 4.648437,0.390625 1.315081,0.247424 2.369767,0.65758 3.164063,1.230469 0.7942446,0.559922 1.3280982,1.302109 1.6015625,2.226562 0.286431,0.911482 0.2929414,2.037783 0.019531,3.378906 -0.1562769,0.807313 -0.4036725,1.56252 -0.7421875,2.265625 -0.3385676,0.703144 -0.748723,1.321633 -1.230469,1.855469 -0.481795,0.533871 -1.028669,0.983089 -1.640625,1.347656 -0.612002,0.351578 -1.282574,0.585953 -2.011718,0.703125 l -0.03906,0.195313 c 0.690082,0.156265 1.315082,0.384129 1.875,0.683594 0.559872,0.286472 1.015601,0.690117 1.367188,1.210937 0.364558,0.507825 0.598933,1.152356 0.703125,1.933594 0.117162,0.78126 0.06508,1.73178 -0.15625,2.851562 -0.260442,1.302091 -0.722681,2.467454 -1.386719,3.496094 -0.664086,1.015629 -1.490908,1.881514 -2.480469,2.597656 -0.989603,0.703124 -2.135436,1.243494 -3.4375,1.621094 -1.289079,0.3776 -2.701838,0.56641 -4.238281,0.56641 l -10.078125,0 5.703125,-28.554691 m 3.808594,11.308594 3.144531,0 c 0.755191,1.7e-5 1.399722,-0.06509 1.933594,-0.195313 0.533835,-0.143211 0.983054,-0.351545 1.347656,-0.625 0.364563,-0.273419 0.657532,-0.61196 0.878906,-1.015625 0.221334,-0.416647 0.384094,-0.898417 0.488281,-1.445312 0.221334,-1.093729 0.03904,-1.874978 -0.546875,-2.34375 -0.585957,-0.481748 -1.621112,-0.722633 -3.105468,-0.722657 l -2.871094,0 -1.269531,6.347657 m -0.976563,4.804687 -1.484375,7.441406 3.554688,0 c 0.794256,5e-6 1.477849,-0.09114 2.050781,-0.273437 0.585921,-0.182286 1.074201,-0.442703 1.464844,-0.78125 0.403627,-0.338535 0.722638,-0.748691 0.957031,-1.230469 0.247377,-0.481763 0.429668,-1.015617 0.546875,-1.601562 0.104147,-0.533845 0.130189,-1.015615 0.07813,-1.445313 -0.0521,-0.442697 -0.221373,-0.820301 -0.507812,-1.132812 -0.286477,-0.312489 -0.696633,-0.553374 -1.230469,-0.722657 -0.520851,-0.169258 -1.197933,-0.253893 -2.03125,-0.253906 l -3.398438,0"/></g></g><rect style="color:#000;fill:#93aca7;fill-opacity:1;fill-rule:nonzero;stroke:none;stroke-width:2.18899989;marker:none;visibility:visible;display:inline;overflow:visible;enable-background:accumulate" id="rect3192" width="20" height="20" x="-52.969" y="1078.813" ry="2.678"/><path id="rect3194" d="m -104.49929,1171.2534 c 8,0 16,0 24,0 0,8 0,16 0,24 -8,0 -16,0 -24,0 0,-8 0,-16 0,-24 z" style="color:#000;fill:#6f8a91;fill-opacity:1;fill-rule:nonzero;stroke:none;stroke-width:.8664;marker:none;visibility:visible;display:inline;overflow:visible;enable-background:accumulate"/><g id="g4084" transform="matrix(0.4054546,0,0,0.4023272,37.979547,644.99187)"><rect style="fill:#fff;fill-opacity:1;stroke:#002b00;stroke-width:.2;stroke-miterlimit:4;stroke-opacity:1;stroke-dasharray:none" id="rect5019" width="48" height="48" x="-43.835" y="972.246" ry=".21"/><rect style="fill:#faa;fill-opacity:1;stroke:none" id="rect5021" width="47.884" height="12.002" x="-43.777" y="972.304" ry=".42"/><rect id="rect5023" width="47.884" height="12.002" x="-43.777" y="984.057" ry=".42" style="fill:#de8787;fill-opacity:1;stroke:none"/><rect style="fill:#ac9393;fill-opacity:1;stroke:none" id="rect5025" width="47.884" height="12.002" x="-43.777" y="996.059" ry=".42"/><rect id="rect5027" width="47.884" height="12.002" x="-43.777" y="1008.061" ry=".42" style="fill:#f95;fill-opacity:1;stroke:none"/><rect style="fill:#4d4d4d;fill-opacity:1;stroke:none" id="rect5037" width="48.25" height="1.125" x="-43.96" y="972.121" ry=".21"/><rect id="rect5039" width="48.25" height="1.125" x="-43.96" y="972.121" ry=".21" style="fill:#4d4d4d;fill-opacity:1;stroke:none"/><rect style="fill:#4d4d4d;fill-opacity:1;stroke:none" id="rect5041" width="48.25" height="1.125" x="-43.96" y="983.746" ry=".21"/><rect id="rect5043" width="48.25" height="1.125" x="-43.96" y="995.871" ry=".21" style="fill:#4d4d4d;fill-opacity:1;stroke:none"/><rect style="fill:#4d4d4d;fill-opacity:1;stroke:none" id="rect5045" width="48.25" height="1.125" x="-43.96" y="1007.246" ry=".21"/><rect id="rect5035" width="10.125" height="24.375" x="-15.397" y="983.746" ry=".21" style="fill:#1f241c;fill-opacity:1;stroke:none"/><rect style="fill:#1f241c;fill-opacity:1;stroke:none" id="rect5031" width="10.125" height="24.375" x="-35.647" y="983.746" ry=".21"/><rect id="rect5047" width="48.25" height="1.125" x="-43.96" y="1019.621" ry=".21" style="fill:#4d4d4d;fill-opacity:1;stroke:none"/><rect style="fill:#ccc;fill-opacity:1;stroke:none" id="rect5049" width="3.67" height="11.839" x="-33.572" y="985.972" ry=".281"/><rect id="rect3033" width="3.67" height="11.839" x="-13.332" y="986.222" ry=".281" style="fill:#ccc;fill-opacity:1;stroke:none"/></g></g></svg>